<mxfile host="app.diagrams.net" agent="Mozilla/5.0 (Windows NT 10.0; Win64; x64) AppleWebKit/537.36 (KHTML, like Gecko) Chrome/134.0.0.0 Safari/537.36 Edg/134.0.0.0" version="26.1.0">
  <diagram id="C5RBs43oDa-KdzZeNtuy" name="Page-1">
    <mxGraphModel dx="2563" dy="2404" grid="1" gridSize="10" guides="1" tooltips="1" connect="1" arrows="1" fold="1" page="1" pageScale="1" pageWidth="827" pageHeight="1169" math="0" shadow="0">
      <root>
        <mxCell id="WIyWlLk6GJQsqaUBKTNV-0" />
        <mxCell id="WIyWlLk6GJQsqaUBKTNV-1" parent="WIyWlLk6GJQsqaUBKTNV-0" />
        <mxCell id="rE41ixS500IUOI0nH0Pi-16" style="edgeStyle=orthogonalEdgeStyle;rounded=0;orthogonalLoop=1;jettySize=auto;html=1;exitX=0.5;exitY=1;exitDx=0;exitDy=0;entryX=0.5;entryY=0;entryDx=0;entryDy=0;" edge="1" parent="WIyWlLk6GJQsqaUBKTNV-1" source="WIyWlLk6GJQsqaUBKTNV-3" target="rE41ixS500IUOI0nH0Pi-0">
          <mxGeometry relative="1" as="geometry" />
        </mxCell>
        <mxCell id="WIyWlLk6GJQsqaUBKTNV-3" value="基金经理向交易员发送现券买卖交易意向" style="rounded=1;whiteSpace=wrap;html=1;fontSize=12;glass=0;strokeWidth=1;shadow=0;fillColor=#dae8fc;strokeColor=#6c8ebf;" parent="WIyWlLk6GJQsqaUBKTNV-1" vertex="1">
          <mxGeometry x="160" y="60" width="120" height="60" as="geometry" />
        </mxCell>
        <mxCell id="rE41ixS500IUOI0nH0Pi-15" style="edgeStyle=orthogonalEdgeStyle;rounded=0;orthogonalLoop=1;jettySize=auto;html=1;exitX=0.5;exitY=1;exitDx=0;exitDy=0;entryX=0.5;entryY=0;entryDx=0;entryDy=0;" edge="1" parent="WIyWlLk6GJQsqaUBKTNV-1" source="rE41ixS500IUOI0nH0Pi-0" target="rE41ixS500IUOI0nH0Pi-12">
          <mxGeometry relative="1" as="geometry" />
        </mxCell>
        <mxCell id="rE41ixS500IUOI0nH0Pi-19" style="edgeStyle=orthogonalEdgeStyle;rounded=0;orthogonalLoop=1;jettySize=auto;html=1;exitX=0.5;exitY=1;exitDx=0;exitDy=0;entryX=0.5;entryY=0;entryDx=0;entryDy=0;" edge="1" parent="WIyWlLk6GJQsqaUBKTNV-1" source="rE41ixS500IUOI0nH0Pi-0" target="rE41ixS500IUOI0nH0Pi-17">
          <mxGeometry relative="1" as="geometry" />
        </mxCell>
        <mxCell id="rE41ixS500IUOI0nH0Pi-0" value="交易员确认交易意向要素" style="rounded=1;whiteSpace=wrap;html=1;fillColor=#dae8fc;strokeColor=#6c8ebf;" vertex="1" parent="WIyWlLk6GJQsqaUBKTNV-1">
          <mxGeometry x="160" y="160" width="120" height="60" as="geometry" />
        </mxCell>
        <mxCell id="rE41ixS500IUOI0nH0Pi-2" style="edgeStyle=orthogonalEdgeStyle;rounded=0;orthogonalLoop=1;jettySize=auto;html=1;exitX=0.5;exitY=1;exitDx=0;exitDy=0;" edge="1" parent="WIyWlLk6GJQsqaUBKTNV-1" source="rE41ixS500IUOI0nH0Pi-0" target="rE41ixS500IUOI0nH0Pi-0">
          <mxGeometry relative="1" as="geometry" />
        </mxCell>
        <mxCell id="rE41ixS500IUOI0nH0Pi-21" style="edgeStyle=orthogonalEdgeStyle;rounded=0;orthogonalLoop=1;jettySize=auto;html=1;exitX=0.5;exitY=1;exitDx=0;exitDy=0;entryX=0.5;entryY=0;entryDx=0;entryDy=0;" edge="1" parent="WIyWlLk6GJQsqaUBKTNV-1" source="rE41ixS500IUOI0nH0Pi-12" target="rE41ixS500IUOI0nH0Pi-20">
          <mxGeometry relative="1" as="geometry" />
        </mxCell>
        <mxCell id="rE41ixS500IUOI0nH0Pi-12" value="QT交谈报价" style="rounded=1;whiteSpace=wrap;html=1;fillColor=#dae8fc;strokeColor=#6c8ebf;" vertex="1" parent="WIyWlLk6GJQsqaUBKTNV-1">
          <mxGeometry x="80" y="280" width="120" height="60" as="geometry" />
        </mxCell>
        <mxCell id="rE41ixS500IUOI0nH0Pi-34" style="edgeStyle=orthogonalEdgeStyle;rounded=0;orthogonalLoop=1;jettySize=auto;html=1;exitX=0.5;exitY=1;exitDx=0;exitDy=0;entryX=0.5;entryY=0;entryDx=0;entryDy=0;" edge="1" parent="WIyWlLk6GJQsqaUBKTNV-1" source="rE41ixS500IUOI0nH0Pi-17" target="rE41ixS500IUOI0nH0Pi-20">
          <mxGeometry relative="1" as="geometry" />
        </mxCell>
        <mxCell id="rE41ixS500IUOI0nH0Pi-17" value="货币中介报价" style="rounded=1;whiteSpace=wrap;html=1;fillColor=#ffe6cc;strokeColor=#d79b00;" vertex="1" parent="WIyWlLk6GJQsqaUBKTNV-1">
          <mxGeometry x="240" y="280" width="120" height="60" as="geometry" />
        </mxCell>
        <mxCell id="rE41ixS500IUOI0nH0Pi-24" style="edgeStyle=orthogonalEdgeStyle;rounded=0;orthogonalLoop=1;jettySize=auto;html=1;exitX=0.5;exitY=1;exitDx=0;exitDy=0;entryX=0.5;entryY=0;entryDx=0;entryDy=0;" edge="1" parent="WIyWlLk6GJQsqaUBKTNV-1" source="rE41ixS500IUOI0nH0Pi-20" target="rE41ixS500IUOI0nH0Pi-23">
          <mxGeometry relative="1" as="geometry" />
        </mxCell>
        <mxCell id="rE41ixS500IUOI0nH0Pi-20" value="交易员确认最优报价" style="rounded=1;whiteSpace=wrap;html=1;" vertex="1" parent="WIyWlLk6GJQsqaUBKTNV-1">
          <mxGeometry x="160" y="380" width="120" height="60" as="geometry" />
        </mxCell>
        <mxCell id="rE41ixS500IUOI0nH0Pi-25" value="否" style="edgeStyle=orthogonalEdgeStyle;rounded=0;orthogonalLoop=1;jettySize=auto;html=1;exitX=1;exitY=0.5;exitDx=0;exitDy=0;verticalAlign=bottom;entryX=0;entryY=0.5;entryDx=0;entryDy=0;" edge="1" parent="WIyWlLk6GJQsqaUBKTNV-1" source="rE41ixS500IUOI0nH0Pi-23" target="rE41ixS500IUOI0nH0Pi-26">
          <mxGeometry relative="1" as="geometry">
            <mxPoint x="380" y="560" as="targetPoint" />
          </mxGeometry>
        </mxCell>
        <mxCell id="rE41ixS500IUOI0nH0Pi-28" value="是" style="edgeStyle=orthogonalEdgeStyle;rounded=0;orthogonalLoop=1;jettySize=auto;html=1;verticalAlign=middle;align=right;" edge="1" parent="WIyWlLk6GJQsqaUBKTNV-1" source="rE41ixS500IUOI0nH0Pi-23" target="rE41ixS500IUOI0nH0Pi-27">
          <mxGeometry relative="1" as="geometry" />
        </mxCell>
        <mxCell id="rE41ixS500IUOI0nH0Pi-23" value="是否在经理授权范围内" style="rhombus;whiteSpace=wrap;html=1;" vertex="1" parent="WIyWlLk6GJQsqaUBKTNV-1">
          <mxGeometry x="180" y="480" width="80" height="80" as="geometry" />
        </mxCell>
        <mxCell id="rE41ixS500IUOI0nH0Pi-29" value="可以接受" style="edgeStyle=orthogonalEdgeStyle;rounded=0;orthogonalLoop=1;jettySize=auto;html=1;exitX=0.5;exitY=1;exitDx=0;exitDy=0;entryX=1;entryY=0.5;entryDx=0;entryDy=0;verticalAlign=bottom;" edge="1" parent="WIyWlLk6GJQsqaUBKTNV-1" source="rE41ixS500IUOI0nH0Pi-26" target="rE41ixS500IUOI0nH0Pi-27">
          <mxGeometry relative="1" as="geometry" />
        </mxCell>
        <mxCell id="rE41ixS500IUOI0nH0Pi-26" value="和基金经理确认当前最优报价是否可以接收" style="rounded=1;whiteSpace=wrap;html=1;fillColor=#dae8fc;strokeColor=#6c8ebf;" vertex="1" parent="WIyWlLk6GJQsqaUBKTNV-1">
          <mxGeometry x="380" y="490" width="120" height="60" as="geometry" />
        </mxCell>
        <mxCell id="rE41ixS500IUOI0nH0Pi-53" value="" style="edgeStyle=orthogonalEdgeStyle;rounded=0;orthogonalLoop=1;jettySize=auto;html=1;" edge="1" parent="WIyWlLk6GJQsqaUBKTNV-1" source="rE41ixS500IUOI0nH0Pi-27" target="rE41ixS500IUOI0nH0Pi-52">
          <mxGeometry relative="1" as="geometry" />
        </mxCell>
        <mxCell id="rE41ixS500IUOI0nH0Pi-27" value="建立交易台账" style="rounded=1;whiteSpace=wrap;html=1;fillColor=#d5e8d4;strokeColor=#82b366;" vertex="1" parent="WIyWlLk6GJQsqaUBKTNV-1">
          <mxGeometry x="160" y="610" width="120" height="60" as="geometry" />
        </mxCell>
        <mxCell id="rE41ixS500IUOI0nH0Pi-36" value="" style="edgeStyle=orthogonalEdgeStyle;rounded=0;orthogonalLoop=1;jettySize=auto;html=1;" edge="1" parent="WIyWlLk6GJQsqaUBKTNV-1" source="rE41ixS500IUOI0nH0Pi-30" target="rE41ixS500IUOI0nH0Pi-32">
          <mxGeometry relative="1" as="geometry" />
        </mxCell>
        <mxCell id="rE41ixS500IUOI0nH0Pi-30" value="发送询价指令" style="rounded=1;whiteSpace=wrap;html=1;labelBackgroundColor=none;fillColor=#f8cecc;strokeColor=#b85450;" vertex="1" parent="WIyWlLk6GJQsqaUBKTNV-1">
          <mxGeometry x="160" y="840" width="120" height="60" as="geometry" />
        </mxCell>
        <mxCell id="rE41ixS500IUOI0nH0Pi-37" value="" style="edgeStyle=orthogonalEdgeStyle;rounded=0;orthogonalLoop=1;jettySize=auto;html=1;" edge="1" parent="WIyWlLk6GJQsqaUBKTNV-1" source="rE41ixS500IUOI0nH0Pi-32" target="rE41ixS500IUOI0nH0Pi-33">
          <mxGeometry relative="1" as="geometry" />
        </mxCell>
        <mxCell id="rE41ixS500IUOI0nH0Pi-32" value="基金经理确认正式指令" style="rounded=1;whiteSpace=wrap;html=1;fillColor=#f8cecc;strokeColor=#b85450;" vertex="1" parent="WIyWlLk6GJQsqaUBKTNV-1">
          <mxGeometry x="160" y="940" width="120" height="60" as="geometry" />
        </mxCell>
        <mxCell id="rE41ixS500IUOI0nH0Pi-40" value="" style="edgeStyle=orthogonalEdgeStyle;rounded=0;orthogonalLoop=1;jettySize=auto;html=1;" edge="1" parent="WIyWlLk6GJQsqaUBKTNV-1" source="rE41ixS500IUOI0nH0Pi-33" target="rE41ixS500IUOI0nH0Pi-35">
          <mxGeometry relative="1" as="geometry" />
        </mxCell>
        <mxCell id="rE41ixS500IUOI0nH0Pi-33" value="交易员执行指令" style="rounded=1;whiteSpace=wrap;html=1;fillColor=#f8cecc;strokeColor=#b85450;" vertex="1" parent="WIyWlLk6GJQsqaUBKTNV-1">
          <mxGeometry x="160" y="1040" width="120" height="60" as="geometry" />
        </mxCell>
        <mxCell id="rE41ixS500IUOI0nH0Pi-35" value="成交确认" style="rounded=1;whiteSpace=wrap;html=1;fillColor=#f8cecc;strokeColor=#b85450;" vertex="1" parent="WIyWlLk6GJQsqaUBKTNV-1">
          <mxGeometry x="160" y="1140" width="120" height="60" as="geometry" />
        </mxCell>
        <mxCell id="rE41ixS500IUOI0nH0Pi-41" value="EXCEL" style="rounded=1;whiteSpace=wrap;html=1;fillColor=#d5e8d4;strokeColor=#82b366;" vertex="1" parent="WIyWlLk6GJQsqaUBKTNV-1">
          <mxGeometry x="680" y="580" width="120" height="60" as="geometry" />
        </mxCell>
        <mxCell id="rE41ixS500IUOI0nH0Pi-42" value="金证投资交易" style="rounded=1;whiteSpace=wrap;html=1;fillColor=#f8cecc;strokeColor=#b85450;" vertex="1" parent="WIyWlLk6GJQsqaUBKTNV-1">
          <mxGeometry x="680" y="680" width="120" height="60" as="geometry" />
        </mxCell>
        <mxCell id="rE41ixS500IUOI0nH0Pi-43" value="Qtrade" style="rounded=1;whiteSpace=wrap;html=1;fillColor=#dae8fc;strokeColor=#6c8ebf;" vertex="1" parent="WIyWlLk6GJQsqaUBKTNV-1">
          <mxGeometry x="680" y="480" width="120" height="60" as="geometry" />
        </mxCell>
        <mxCell id="rE41ixS500IUOI0nH0Pi-44" value="DM/QB/iFind" style="rounded=1;whiteSpace=wrap;html=1;fillColor=#ffe6cc;strokeColor=#d79b00;" vertex="1" parent="WIyWlLk6GJQsqaUBKTNV-1">
          <mxGeometry x="680" y="380" width="120" height="60" as="geometry" />
        </mxCell>
        <mxCell id="rE41ixS500IUOI0nH0Pi-54" value="否" style="edgeStyle=orthogonalEdgeStyle;rounded=0;orthogonalLoop=1;jettySize=auto;html=1;exitX=0.5;exitY=1;exitDx=0;exitDy=0;entryX=0.5;entryY=0;entryDx=0;entryDy=0;verticalAlign=middle;align=right;" edge="1" parent="WIyWlLk6GJQsqaUBKTNV-1" source="rE41ixS500IUOI0nH0Pi-52" target="rE41ixS500IUOI0nH0Pi-30">
          <mxGeometry relative="1" as="geometry" />
        </mxCell>
        <mxCell id="rE41ixS500IUOI0nH0Pi-56" value="是" style="edgeStyle=orthogonalEdgeStyle;rounded=0;orthogonalLoop=1;jettySize=auto;html=1;verticalAlign=bottom;" edge="1" parent="WIyWlLk6GJQsqaUBKTNV-1" source="rE41ixS500IUOI0nH0Pi-52" target="rE41ixS500IUOI0nH0Pi-55">
          <mxGeometry relative="1" as="geometry" />
        </mxCell>
        <mxCell id="rE41ixS500IUOI0nH0Pi-52" value="&#xa;&lt;span style=&quot;color: rgb(0, 0, 0); font-family: Helvetica; font-size: 12px; font-style: normal; font-variant-ligatures: normal; font-variant-caps: normal; font-weight: 400; letter-spacing: normal; orphans: 2; text-align: center; text-indent: 0px; text-transform: none; widows: 2; word-spacing: 0px; -webkit-text-stroke-width: 0px; white-space: normal; background-color: rgb(251, 251, 251); text-decoration-thickness: initial; text-decoration-style: initial; text-decoration-color: initial; display: inline !important; float: none;&quot;&gt;判断是否存在反向交易&lt;/span&gt;&#xa;&#xa;" style="rhombus;whiteSpace=wrap;html=1;fillColor=#d5e8d4;strokeColor=#82b366;rounded=1;textShadow=0;" vertex="1" parent="WIyWlLk6GJQsqaUBKTNV-1">
          <mxGeometry x="180" y="710" width="80" height="80" as="geometry" />
        </mxCell>
        <mxCell id="rE41ixS500IUOI0nH0Pi-55" value="反馈基金经理" style="whiteSpace=wrap;html=1;fillColor=#dae8fc;strokeColor=#6c8ebf;rounded=1;" vertex="1" parent="WIyWlLk6GJQsqaUBKTNV-1">
          <mxGeometry x="380" y="720" width="120" height="60" as="geometry" />
        </mxCell>
        <mxCell id="rE41ixS500IUOI0nH0Pi-59" style="edgeStyle=orthogonalEdgeStyle;rounded=0;orthogonalLoop=1;jettySize=auto;html=1;exitX=1;exitY=0.5;exitDx=0;exitDy=0;dashed=1;endArrow=none;startFill=0;" edge="1" parent="WIyWlLk6GJQsqaUBKTNV-1" source="rE41ixS500IUOI0nH0Pi-57">
          <mxGeometry relative="1" as="geometry">
            <mxPoint x="149.99999999999955" y="100.29411764705878" as="targetPoint" />
          </mxGeometry>
        </mxCell>
        <mxCell id="rE41ixS500IUOI0nH0Pi-57" value="&lt;h1 style=&quot;margin-top: 0px;&quot;&gt;Heading&lt;/h1&gt;&lt;p&gt;Lorem ipsum dolor sit amet, consectetur adipisicing elit, sed do eiusmod tempor incididunt ut labore et dolore magna aliqua.&lt;/p&gt;" style="text;html=1;whiteSpace=wrap;overflow=hidden;rounded=0;" vertex="1" parent="WIyWlLk6GJQsqaUBKTNV-1">
          <mxGeometry x="-240" y="40" width="180" height="120" as="geometry" />
        </mxCell>
        <mxCell id="rE41ixS500IUOI0nH0Pi-61" value="交易现状&amp;amp;潜在问题" style="text;html=1;align=center;verticalAlign=middle;whiteSpace=wrap;rounded=0;fontSize=24;fontStyle=1" vertex="1" parent="WIyWlLk6GJQsqaUBKTNV-1">
          <mxGeometry x="-230" y="-40" width="130" height="30" as="geometry" />
        </mxCell>
        <mxCell id="rE41ixS500IUOI0nH0Pi-62" value="交易流程" style="text;html=1;align=center;verticalAlign=middle;whiteSpace=wrap;rounded=0;fontSize=24;fontStyle=1" vertex="1" parent="WIyWlLk6GJQsqaUBKTNV-1">
          <mxGeometry x="170" y="-40" width="100" height="30" as="geometry" />
        </mxCell>
      </root>
    </mxGraphModel>
  </diagram>
</mxfile>
